# xmcd
# 
# Track frame offsets:
#     150
#     18661
#     33743
#     53699
#     70532
#     84795
#     99507
#     113281
#     129238
#     145530
#     162018
#     178146
#     192478
# 
# Disc length: 2779
# 
# Revision: 0
# Processed by: cddbd v1.5.2PL0 Copyright (c) Steve Scherf et al.
# Submitted via: fre:ac v1.0.31
# 
DISCID=9b0ad90d
DTITLE=Little Big Town - Nightfall
DYEAR=0
DGENRE=Country
TTITLE0=Next To You
TTITLE1=Nightfall
TTITLE2=Forever And A Night
TTITLE3=Throw Your Love Away
TTITLE4=Over Drinking
TTITLE5=Wine, Beer, Whiskey
TTITLE6=Questions
TTITLE7=The Daughters
TTITLE8=River Of Stars
TTITLE9=Sugar Coat
TTITLE10=Problem Child
TTITLE11=Bluebird
TTITLE12=Trouble With Forever
EXTD=
EXTT0=
EXTT1=
EXTT2=
EXTT3=
EXTT4=
EXTT5=
EXTT6=
EXTT7=
EXTT8=
EXTT9=
EXTT10=
EXTT11=
EXTT12=
PLAYORDER=
